<?xml version="1.0" encoding="UTF-8" standalone="no" ?>
<!DOCTYPE svg PUBLIC "-//W3C//DTD SVG 1.1//EN" "http://www.w3.org/Graphics/SVG/1.1/DTD/svg11.dtd">
<svg xmlns="http://www.w3.org/2000/svg" xmlns:xlink="http://www.w3.org/1999/xlink" version="1.1" width="80" height="80" viewBox="0 0 80 80" xml:space="preserve">
<desc>Created with Fabric.js 5.3.0</desc>
<defs>
</defs>
<g transform="matrix(1.0976 0 0 1.0976 40 40)" id="kKm3mPjljy19-ahNuvTif"  >
<path style="stroke: rgb(236,43,209); stroke-width: 0; stroke-dasharray: none; stroke-linecap: butt; stroke-dashoffset: 0; stroke-linejoin: miter; stroke-miterlimit: 4; fill: rgb(114,137,218); fill-rule: nonzero; opacity: 1;" vector-effect="non-scaling-stroke"  transform=" translate(0, 0)" d="M -36.44315 -21.1079 C -36.44315 -29.57733 -29.577320000000004 -36.44315 -21.1079 -36.44315 L 21.107889999999998 -36.44315 L 21.107889999999998 -36.44315 C 29.577319999999997 -36.44315 36.44314 -29.577320000000004 36.44314 -21.1079 L 36.44314 21.107889999999998 L 36.44314 21.107889999999998 C 36.44314 29.577319999999997 29.57731 36.44314 21.107889999999998 36.44314 L -21.1079 36.44314 L -21.1079 36.44314 C -29.57733 36.44314 -36.44315 29.57731 -36.44315 21.107889999999998 z" stroke-linecap="round" />
</g>
<g transform="matrix(-0.0864553314 0 0 0.0864969596 41 40)" id="yR9mS4nXSBUxg9KxyedvA"  >
<path style="stroke: none; stroke-width: 1; stroke-dasharray: none; stroke-linecap: butt; stroke-dashoffset: 0; stroke-linejoin: miter; stroke-miterlimit: 4; fill: rgb(255,255,255); fill-rule: nonzero; opacity: 1;" vector-effect="non-scaling-stroke"  transform=" translate(-480.333, -575.5)" d="M 770 475 L 740.667 445.66700000000003 L 759.667 428.333 Q 769.667 418.333 769.667 405.833 Q 769.667 393.333 759.667 383.333 L 672.667 296.333 Q 662.667 286.333 650.167 286.333 Q 637.667 286.333 627.667 296.333 L 610.3330000000001 315.333 L 580 285 L 605.333 260 Q 624 241.334 650.333 241.667 Q 676.6669999999999 242 695.333 260.66700000000003 L 795.333 360.66700000000003 Q 814 379.137 814 405.235 Q 814 431.333 795.333 450 L 770 475 Z M 354.667 890.666 Q 336.196 910 310.098 910 Q 284 910 265.334 890.666 L 173.333 798.3330000000001 Q 150.667 775.133 150.667 745.7330000000001 Q 150.667 716.3330000000001 173.333 693.667 L 190.667 676.3330000000001 L 220 705 L 202.666 723 Q 192.666 733 192.666 745.5 Q 192.666 758 202.666 768 L 288 853.334 Q 298 863.334 310.5 863.334 Q 323 863.334 333 853.334 L 351 836 L 379.66700000000003 865.333 L 354.66700000000003 890.6659999999999 Z M 741.333 618.667 L 774.334 586 Q 784.334 576 784.334 563 Q 784.334 550 774.334 540 L 516 281.666 Q 506 271.666 493 271.666 Q 480 271.666 470 281.666 L 437.33299999999997 314.667 Q 427.33299999999997 324.667 427.33299999999997 337.167 Q 427.33299999999997 349.667 437.33299999999997 359.667 L 696.333 618.6669999999999 Q 706.333 628.6669999999999 718.833 628.6669999999999 Q 731.333 628.6669999999999 741.333 618.6669999999999 Z M 489.667 870.334 L 527.334 833.6669999999999 Q 537.334 823.6669999999999 537.334 811.1669999999999 Q 537.334 798.6669999999999 527.334 788.6669999999999 L 267.333 528.666 Q 257.333 518.666 244.83300000000003 518.666 Q 232.33300000000003 518.666 222.33300000000003 528.666 L 185.66600000000003 566.3330000000001 Q 175.66600000000003 576.3330000000001 175.66600000000003 589.3330000000001 Q 175.66600000000003 602.3330000000001 185.66600000000003 612.3330000000001 L 443.66700000000003 870.3340000000001 Q 453.66700000000003 880.3340000000001 466.66700000000003 880.3340000000001 Q 479.66700000000003 880.3340000000001 489.66700000000003 870.3340000000001 Z M 459.333 661 L 568.667 550 L 506 487.333 L 395 596.667 L 459.333 661 Z M 518 900 Q 495.71 922.333 466.425 922.333 Q 437.139 922.333 416 900 L 156 640 Q 133.333 618.711 133.333 589.689 Q 133.333 560.6669999999999 156 538 L 193 500 Q 216.2 477.33299999999997 245.6 477.33299999999997 Q 275 477.33299999999997 297.666 500 L 365.66700000000003 568 L 475.66700000000003 458 L 407.66700000000003 388.33299999999997 Q 385 367.044 385 337.522 Q 385 308 407.66700000000003 285.334 L 441.66700000000003 251.333 Q 464.867 228.667 494.26700000000005 228.667 Q 523.667 228.667 546.3330000000001 251.333 L 804.6670000000001 509.66700000000003 Q 827.3330000000002 532.8670000000001 827.3330000000002 562.267 Q 827.3330000000002 591.666 804.6670000000001 614.3330000000001 L 770.6660000000002 648.3330000000001 Q 748.044 671 718.522 671 Q 689.0000000000001 671 667.667 648.333 L 598 580.333 L 488 690.333 L 556 758.334 Q 577.667 780.919 577.667 811.0699999999999 Q 577.667 841.222 556 862.9999999999999 L 518 899.9999999999999 Z" stroke-linecap="round" />
</g>
</svg>